<svg xmlns="http://www.w3.org/2000/svg" width="1440" height="768" viewBox="0 0 1440 768" fill="none">
<path opacity="0.1" d="M-253.437 767.239C-236.158 645.441 73.0763 637.112 85.2706 407.872C110.924 -74.3917 951.582 936.098 1020.93 662.247C1159.37 115.543 2707.62 178.369 2741.5 91.1487M-192.502 351.8C-148.628 461.431 -9.46969 641.351 196.163 483.982C453.203 287.271 587.785 -95.6538 894.982 23.8504C1202.18 143.355 1547.21 608.291 1705.14 308.608M-250.772 732.143C-232.226 621.365 68.9092 622 90.3149 396.183C126.987 -72.4831 934.022 871.653 1014.7 616.534C1161.17 101.554 2652.13 183.528 2691.91 86.1904M-248.106 697.046C-228.294 597.289 64.7427 606.889 95.3597 384.494C143.05 -70.5745 916.462 807.209 1008.46 570.82C1162.98 87.5645 2596.63 188.687 2642.32 81.2321M-245.441 661.95C-224.362 573.213 60.5756 591.777 100.404 372.805C159.113 -68.666 898.902 742.764 1002.23 525.107C1164.78 73.5753 2541.14 193.846 2592.74 76.2738M-242.775 626.855C-220.43 549.139 56.4091 576.667 105.449 361.116C175.176 -66.7563 881.343 678.321 995.995 479.395C1166.58 59.5874 2485.65 199.006 2543.15 71.3166M-240.11 591.759C-216.498 525.063 52.242 561.555 110.493 349.427C191.239 -64.8478 863.783 613.876 989.761 433.681C1168.38 45.5982 2430.15 204.165 2493.56 66.3583M-237.444 556.662C-212.566 500.987 48.0749 546.443 115.537 337.738C207.301 -62.9392 846.223 549.432 983.527 387.968C1170.19 31.6091 2374.66 209.324 2443.98 61.4M-234.778 521.566C-208.634 476.911 43.9084 531.332 120.582 326.049C223.365 -61.0306 828.663 484.987 977.294 342.255C1171.99 17.62 2319.17 214.483 2394.39 56.4417M-232.113 486.47C-204.702 452.835 39.7413 516.22 125.626 314.36C239.427 -59.1221 811.104 420.543 971.06 296.541C1173.79 3.63088 2263.67 219.642 2344.8 51.4834M-229.448 451.374C-200.77 428.759 35.5742 501.108 130.671 302.67C255.49 -57.2135 793.543 356.098 964.826 250.828C1175.59 -10.3582 2208.18 224.801 2295.22 46.5251M-226.782 416.277C-196.838 404.683 31.4077 485.997 135.715 290.981C271.553 -55.305 775.984 291.654 958.593 205.115C1177.39 -24.3474 2152.68 229.96 2245.63 41.5668M-224.116 381.182C-192.906 380.609 27.2406 470.886 140.76 279.293C287.616 -53.3953 758.424 227.21 952.359 159.403C1179.2 -38.3354 2097.19 235.12 2196.04 36.6096M-221.45 346.086C-188.974 356.533 23.0741 455.774 145.804 267.604C303.679 -51.4867 740.865 162.766 946.126 113.689C1181 -52.3245 2041.7 240.279 2146.46 31.6513M-218.652 319.652C-184.908 341.12 19.0406 449.325 150.982 264.577C319.875 -40.9154 723.438 106.984 940.026 76.6386C1182.93 -57.6509 1986.34 254.101 2097 35.3557M-215.58 310.878C-180.571 343.366 15.2793 460.536 156.432 279.211C336.344 -12.6844 706.284 68.8619 934.198 57.2478C1185.14 -45.3175 1931.25 285.582 2047.82 56.7199M-212.45 305.926C-176.174 349.434 11.5776 475.568 161.942 297.665C352.872 19.3678 689.189 34.5609 928.429 41.678C1187.41 -29.163 1876.22 320.885 1998.7 81.9052M-209.175 310.356C-171.632 364.884 8.0199 499.983 167.596 325.502C369.544 60.8026 672.239 9.64267 922.805 35.4909C1189.82 -3.62592 1821.33 365.57 1949.72 116.473M-205.843 318.511C-167.034 384.06 4.51971 528.122 173.307 357.064C386.273 105.962 655.346 -11.5506 917.238 33.0289C1192.29 25.6362 1766.51 413.981 1900.8 154.766M-202.508 326.79C-162.433 403.359 1.02197 556.386 179.02 388.75C403.005 151.246 638.455 -32.62 911.673 30.6907C1194.76 55.0222 1711.68 462.515 1851.89 193.183M-199.173 335.11C-157.831 422.7 -2.47569 584.691 184.734 420.477C419.738 196.571 621.565 -53.6478 906.109 28.394C1197.23 84.4498 1656.86 511.09 1802.97 231.641M-195.838 343.45C-153.229 442.06 -5.97249 613.015 190.448 452.224C436.47 241.916 604.675 -74.6561 900.545 26.1169C1199.71 113.897 1602.03 559.686 1754.05 270.119" stroke="black"/>
</svg>