<svg
    width="163"
    height="25"
    viewBox="0 0 163 25"
    fill="none"
    xmlns="http://www.w3.org/2000/svg"
>
    <path
        d="M0.280029 24V0.640015V0.640015C3.05283 0.640015 5.6565 1.97328 7.27725 4.22308L11.704 10.368L16.4599 3.99891C18.0384 1.88502 20.5218 0.640015 23.16 0.640015V0.640015V24H18.712V7.80801L11.672 17.312L4.72803 7.90401V24H0.280029Z"
        fill="#04312B"
    />
    <path
        d="M25.5575 24V10C25.5575 8.89545 26.453 8.00002 27.5575 8.00002H29.9415V24H25.5575ZM25.5575 6.40001V2.01601H29.9415V6.40001H25.5575Z"
        fill="#04312B"
    />
    <path
        d="M32.1825 24V8.00002H34.7425C35.7322 8.00002 36.5345 8.80232 36.5345 9.79201V9.79201C37.6225 8.38401 39.0945 7.68001 40.9505 7.68001C42.8385 7.68001 44.3105 8.25601 45.3985 9.40801C46.4545 10.56 46.9985 12.192 46.9985 14.24V24H42.5505V14.816C42.5505 13.728 42.2945 12.896 41.7825 12.32C41.2705 11.744 40.5665 11.424 39.6065 11.424C38.7105 11.424 37.9745 11.744 37.3985 12.384C36.8225 13.024 36.5665 13.984 36.5665 15.264V24H32.1825Z"
        fill="#04312B"
    />
    <path
        d="M56.477 24.32C54.557 24.32 52.765 23.584 51.165 22.112C49.565 20.64 48.765 18.624 48.765 16C48.765 14.208 49.149 12.672 49.981 11.36C50.781 10.08 51.741 9.12001 52.893 8.54401C54.045 7.96801 55.261 7.68001 56.541 7.68001C58.525 7.68001 60.093 8.32001 61.309 9.56801V5.02402C61.309 2.6028 63.2718 0.640015 65.693 0.640015V0.640015V24H63.101C62.1113 24 61.309 23.1977 61.309 22.208V22.208C60.093 23.616 58.493 24.32 56.477 24.32ZM57.341 20.288C58.493 20.288 59.485 19.872 60.253 19.04C61.021 18.208 61.437 17.184 61.437 15.968C61.437 14.784 61.021 13.76 60.253 12.928C59.485 12.096 58.493 11.68 57.341 11.68C56.125 11.68 55.101 12.096 54.269 12.896C53.437 13.728 53.053 14.752 53.053 15.968C53.053 17.216 53.437 18.24 54.269 19.072C55.101 19.904 56.125 20.288 57.341 20.288Z"
        fill="#04312B"
    />
    <path
        d="M68.0925 24V0.640015H75.4205C78.0445 0.640015 80.1245 1.40801 81.6925 2.88001C83.2285 4.35201 84.0285 6.24002 84.0285 8.48001C84.0285 10.016 83.6445 11.424 82.8765 12.672C82.1085 13.952 80.9885 14.848 79.5165 15.424L84.8285 24H79.7405L73.8612 14.3084C73.3659 13.492 73.9536 12.448 74.9085 12.448V12.448C76.4765 12.448 77.6285 12.064 78.3965 11.232C79.1645 10.4 79.5485 9.50401 79.5485 8.48001C79.5485 6.04801 77.9805 4.80001 74.9085 4.80001H72.5405V24H68.0925Z"
        fill="#04312B"
    />
    <path
        d="M92.8068 24.32C90.3428 24.32 88.3268 23.52 86.7268 21.92C85.1268 20.32 84.3588 18.368 84.3588 16C84.3588 13.696 85.1588 11.744 86.7908 10.112C88.3908 8.51201 90.3748 7.68001 92.6788 7.68001C95.0788 7.68001 97.0628 8.48001 98.5988 10.08C100.135 11.68 100.935 13.632 100.935 15.968V17.568H88.5828C88.8388 18.464 89.3188 19.2 90.0548 19.712C90.7588 20.224 91.6868 20.48 92.8388 20.48C93.7028 20.48 94.4708 20.256 95.1748 19.808V19.808C96.2941 19.0957 97.7459 18.5631 98.8854 19.2426L100.263 20.064C99.5268 21.376 98.5348 22.4 97.2548 23.168C95.9748 23.936 94.5028 24.32 92.8068 24.32ZM92.7108 11.52C91.8148 11.52 91.0148 11.776 90.3108 12.224C89.6068 12.672 89.0948 13.28 88.7748 14.048H96.5188C95.9428 12.384 94.6628 11.52 92.7108 11.52Z"
        fill="#04312B"
    />
    <path
        d="M109.114 24.32C105.37 24.32 102.906 22.88 101.754 20L105.946 18.368C106.522 19.84 107.642 20.544 109.306 20.544C109.978 20.544 110.522 20.416 110.906 20.128C111.29 19.872 111.514 19.52 111.514 19.104C111.514 18.752 111.226 18.464 110.714 18.272C110.17 18.08 109.37 17.856 108.346 17.664C108.218 17.664 108.154 17.632 108.09 17.632C107.258 17.504 106.522 17.312 105.946 17.12C105.338 16.928 104.73 16.64 104.154 16.288C103.546 15.936 103.098 15.456 102.778 14.848C102.458 14.24 102.33 13.536 102.33 12.704C102.33 11.328 102.938 10.144 104.154 9.15201C105.37 8.16001 106.97 7.68001 108.89 7.68001C112.122 7.68001 114.394 8.92801 115.674 11.392L111.802 13.024C111.322 11.872 110.33 11.264 108.858 11.264C108.154 11.264 107.642 11.392 107.29 11.648C106.938 11.904 106.778 12.192 106.778 12.576C106.778 12.928 107.002 13.184 107.45 13.376C107.898 13.568 108.794 13.76 110.106 14.016C110.906 14.208 111.61 14.368 112.186 14.56C112.762 14.752 113.338 15.04 113.978 15.392C114.586 15.776 115.066 16.256 115.386 16.864C115.706 17.472 115.898 18.176 115.898 18.976C115.898 20.32 115.29 21.568 114.106 22.688C112.89 23.808 111.226 24.352 109.114 24.32Z"
        fill="#04312B"
    />
    <path
        d="M117.019 11.936V8.00002H119.739V4.25601L124.123 1.85601V8.00002H127.131V8.92801C127.131 10.5893 125.784 11.936 124.123 11.936V11.936V17.024C124.123 18.304 124.283 19.104 124.635 19.424C124.955 19.744 125.787 19.904 127.131 19.904V24H126.491C123.931 24 122.171 23.52 121.211 22.496C120.219 21.472 119.739 19.68 119.739 17.056V11.936H117.019Z"
        fill="#04312B"
    />
    <path
        d="M136.557 24.32C134.093 24.32 132.077 23.52 130.477 21.92C128.877 20.32 128.109 18.368 128.109 16C128.109 13.696 128.909 11.744 130.541 10.112C132.141 8.51201 134.125 7.68001 136.429 7.68001C138.829 7.68001 140.813 8.48001 142.349 10.08C143.885 11.68 144.685 13.632 144.685 15.968V17.568H132.333C132.589 18.464 133.069 19.2 133.805 19.712C134.509 20.224 135.437 20.48 136.589 20.48C137.453 20.48 138.221 20.256 138.925 19.808V19.808C140.044 19.0957 141.496 18.5631 142.635 19.2426L144.013 20.064C143.277 21.376 142.285 22.4 141.005 23.168C139.725 23.936 138.253 24.32 136.557 24.32ZM136.461 11.52C135.565 11.52 134.765 11.776 134.061 12.224C133.357 12.672 132.845 13.28 132.525 14.048H140.269C139.693 12.384 138.413 11.52 136.461 11.52Z"
        fill="#04312B"
    />
    <path
        d="M153.696 24.32C151.776 24.32 149.984 23.584 148.384 22.112C146.784 20.64 145.984 18.624 145.984 16C145.984 14.208 146.368 12.672 147.2 11.36C148 10.08 148.96 9.12001 150.112 8.54401C151.264 7.96801 152.48 7.68001 153.76 7.68001C155.744 7.68001 157.312 8.32001 158.528 9.56801V5.024C158.528 2.60279 160.491 0.640015 162.912 0.640015V0.640015V24H160.32C159.33 24 158.528 23.1977 158.528 22.208V22.208C157.312 23.616 155.712 24.32 153.696 24.32ZM154.56 20.288C155.712 20.288 156.704 19.872 157.472 19.04C158.24 18.208 158.656 17.184 158.656 15.968C158.656 14.784 158.24 13.76 157.472 12.928C156.704 12.096 155.712 11.68 154.56 11.68C153.344 11.68 152.32 12.096 151.488 12.896C150.656 13.728 150.272 14.752 150.272 15.968C150.272 17.216 150.656 18.24 151.488 19.072C152.32 19.904 153.344 20.288 154.56 20.288Z"
        fill="#04312B"
    />
</svg>